<mxfile host="app.diagrams.net" modified="2022-06-10T16:26:07.781Z" agent="5.0 (Windows NT 10.0; Win64; x64) AppleWebKit/537.36 (KHTML, like Gecko) Chrome/102.0.5005.63 Safari/537.36 Edg/102.0.1245.33" etag="ErbgmdcqCBeGQKxMy7FM" version="19.0.3" type="github">
  <diagram id="kgpKYQtTHZ0yAKxKKP6v" name="Page-1">
    <mxGraphModel dx="764" dy="310" grid="1" gridSize="10" guides="1" tooltips="1" connect="1" arrows="1" fold="1" page="1" pageScale="1" pageWidth="850" pageHeight="1100" math="0" shadow="0">
      <root>
        <mxCell id="0" />
        <mxCell id="1" parent="0" />
        <mxCell id="E5ol-iJEVNm1mvob5SmV-3" value="Login page" style="shape=umlLifeline;perimeter=lifelinePerimeter;container=1;collapsible=0;recursiveResize=0;rounded=0;shadow=0;strokeWidth=1;" parent="1" vertex="1">
          <mxGeometry x="220" y="80" width="115" height="540" as="geometry" />
        </mxCell>
        <mxCell id="E5ol-iJEVNm1mvob5SmV-4" value="" style="points=[];perimeter=orthogonalPerimeter;rounded=0;shadow=0;strokeWidth=1;" parent="E5ol-iJEVNm1mvob5SmV-3" vertex="1">
          <mxGeometry x="52.5" y="80" width="10" height="80" as="geometry" />
        </mxCell>
        <mxCell id="pe-_lfKDnjAAdqRKlTJw-6" value="Envoie de l&#39;email / password hash" style="endArrow=classic;html=1;rounded=0;verticalAlign=bottom;" edge="1" parent="E5ol-iJEVNm1mvob5SmV-3" target="pe-_lfKDnjAAdqRKlTJw-1">
          <mxGeometry width="50" height="50" relative="1" as="geometry">
            <mxPoint x="55" y="160" as="sourcePoint" />
            <mxPoint x="165.00000000000023" y="160" as="targetPoint" />
          </mxGeometry>
        </mxCell>
        <mxCell id="pe-_lfKDnjAAdqRKlTJw-18" value="Redirect" style="curved=1;endArrow=classic;html=1;rounded=0;exitX=0.5;exitY=0.213;exitDx=0;exitDy=0;exitPerimeter=0;entryX=0.519;entryY=0.25;entryDx=0;entryDy=0;entryPerimeter=0;verticalAlign=bottom;" edge="1" parent="E5ol-iJEVNm1mvob5SmV-3">
          <mxGeometry x="-0.4726" y="10" width="50" height="50" relative="1" as="geometry">
            <mxPoint x="62.5" y="270.4" as="sourcePoint" />
            <mxPoint x="64.39999999999986" y="300" as="targetPoint" />
            <Array as="points">
              <mxPoint x="92.5" y="270" />
              <mxPoint x="103.5" y="284" />
              <mxPoint x="92.5" y="300" />
            </Array>
            <mxPoint as="offset" />
          </mxGeometry>
        </mxCell>
        <mxCell id="pe-_lfKDnjAAdqRKlTJw-22" value="" style="points=[];perimeter=orthogonalPerimeter;rounded=0;shadow=0;strokeWidth=1;" vertex="1" parent="E5ol-iJEVNm1mvob5SmV-3">
          <mxGeometry x="52.5" y="240" width="10" height="90" as="geometry" />
        </mxCell>
        <mxCell id="pe-_lfKDnjAAdqRKlTJw-23" value="Redirect" style="curved=1;endArrow=classic;html=1;rounded=0;exitX=0.5;exitY=0.213;exitDx=0;exitDy=0;exitPerimeter=0;entryX=0.519;entryY=0.25;entryDx=0;entryDy=0;entryPerimeter=0;verticalAlign=bottom;" edge="1" parent="E5ol-iJEVNm1mvob5SmV-3">
          <mxGeometry x="-0.4726" y="10" width="50" height="50" relative="1" as="geometry">
            <mxPoint x="62.5" y="430.4" as="sourcePoint" />
            <mxPoint x="64.39999999999986" y="460" as="targetPoint" />
            <Array as="points">
              <mxPoint x="92.5" y="430" />
              <mxPoint x="103.5" y="444" />
              <mxPoint x="92.5" y="460" />
            </Array>
            <mxPoint as="offset" />
          </mxGeometry>
        </mxCell>
        <mxCell id="pe-_lfKDnjAAdqRKlTJw-24" value="Login non valide" style="endArrow=none;html=1;rounded=0;verticalAlign=bottom;startArrow=classic;startFill=1;endFill=0;dashed=1;" edge="1" parent="E5ol-iJEVNm1mvob5SmV-3">
          <mxGeometry width="50" height="50" relative="1" as="geometry">
            <mxPoint x="62.50034482758605" y="400" as="sourcePoint" />
            <mxPoint x="275.1900000000002" y="400" as="targetPoint" />
          </mxGeometry>
        </mxCell>
        <mxCell id="pe-_lfKDnjAAdqRKlTJw-1" value="Database" style="shape=umlLifeline;perimeter=lifelinePerimeter;container=1;collapsible=0;recursiveResize=0;rounded=0;shadow=0;strokeWidth=1;" vertex="1" parent="1">
          <mxGeometry x="440" y="80" width="100" height="540" as="geometry" />
        </mxCell>
        <mxCell id="pe-_lfKDnjAAdqRKlTJw-16" value="Login valide" style="endArrow=none;html=1;rounded=0;verticalAlign=bottom;startArrow=classic;startFill=1;endFill=0;dashed=1;" edge="1" parent="pe-_lfKDnjAAdqRKlTJw-1" source="E5ol-iJEVNm1mvob5SmV-3">
          <mxGeometry width="50" height="50" relative="1" as="geometry">
            <mxPoint x="-60" y="240" as="sourcePoint" />
            <mxPoint x="50.00000000000023" y="240" as="targetPoint" />
          </mxGeometry>
        </mxCell>
        <mxCell id="pe-_lfKDnjAAdqRKlTJw-4" value="Entrer email / password" style="endArrow=classic;html=1;rounded=0;verticalAlign=bottom;" edge="1" parent="1" target="E5ol-iJEVNm1mvob5SmV-3">
          <mxGeometry width="50" height="50" relative="1" as="geometry">
            <mxPoint x="50" y="160" as="sourcePoint" />
            <mxPoint x="160" y="160" as="targetPoint" />
          </mxGeometry>
        </mxCell>
        <mxCell id="pe-_lfKDnjAAdqRKlTJw-5" value="Login" style="endArrow=classic;html=1;rounded=0;verticalAlign=bottom;" edge="1" parent="1" target="E5ol-iJEVNm1mvob5SmV-3">
          <mxGeometry width="50" height="50" relative="1" as="geometry">
            <mxPoint x="49.999999999999886" y="200" as="sourcePoint" />
            <mxPoint x="229.5" y="200" as="targetPoint" />
          </mxGeometry>
        </mxCell>
        <mxCell id="pe-_lfKDnjAAdqRKlTJw-7" value="Valide données Utilisateur" style="curved=1;endArrow=classic;html=1;rounded=0;exitX=0.5;exitY=0.213;exitDx=0;exitDy=0;exitPerimeter=0;entryX=0.519;entryY=0.25;entryDx=0;entryDy=0;entryPerimeter=0;verticalAlign=bottom;" edge="1" parent="1" source="pe-_lfKDnjAAdqRKlTJw-1" target="pe-_lfKDnjAAdqRKlTJw-1">
          <mxGeometry x="0.003" y="32" width="50" height="50" relative="1" as="geometry">
            <mxPoint x="280" y="240" as="sourcePoint" />
            <mxPoint x="330" y="190" as="targetPoint" />
            <Array as="points">
              <mxPoint x="520" y="180" />
              <mxPoint x="530" y="200" />
              <mxPoint x="520" y="230" />
            </Array>
            <mxPoint x="3" y="-32" as="offset" />
          </mxGeometry>
        </mxCell>
        <mxCell id="pe-_lfKDnjAAdqRKlTJw-15" value="alt" style="shape=umlFrame;whiteSpace=wrap;html=1;width=40;height=20;" vertex="1" parent="1">
          <mxGeometry y="290" width="520" height="320" as="geometry" />
        </mxCell>
        <mxCell id="pe-_lfKDnjAAdqRKlTJw-20" value="Utilisateur" style="shape=umlLifeline;participant=umlActor;perimeter=lifelinePerimeter;whiteSpace=wrap;html=1;container=1;collapsible=0;recursiveResize=0;verticalAlign=top;spacingTop=36;outlineConnect=0;align=center;labelBackgroundColor=default;size=40;" vertex="1" parent="1">
          <mxGeometry x="40" y="80" width="20" height="540" as="geometry" />
        </mxCell>
        <mxCell id="pe-_lfKDnjAAdqRKlTJw-19" value="Connexion réussit (message)" style="endArrow=none;html=1;rounded=0;verticalAlign=bottom;startArrow=classic;startFill=1;endFill=0;dashed=1;entryX=0.091;entryY=1.009;entryDx=0;entryDy=0;entryPerimeter=0;" edge="1" parent="1" source="pe-_lfKDnjAAdqRKlTJw-20" target="pe-_lfKDnjAAdqRKlTJw-22">
          <mxGeometry width="50" height="50" relative="1" as="geometry">
            <mxPoint x="120" y="410" as="sourcePoint" />
            <mxPoint x="385.0000000000002" y="410" as="targetPoint" />
          </mxGeometry>
        </mxCell>
        <mxCell id="pe-_lfKDnjAAdqRKlTJw-25" value="Identifiants invalide (message)" style="endArrow=none;html=1;rounded=0;verticalAlign=bottom;startArrow=classic;startFill=1;endFill=0;dashed=1;entryX=0.091;entryY=1.009;entryDx=0;entryDy=0;entryPerimeter=0;" edge="1" parent="1">
          <mxGeometry width="50" height="50" relative="1" as="geometry">
            <mxPoint x="50.00034482758605" y="560" as="sourcePoint" />
            <mxPoint x="273.6000000000001" y="560" as="targetPoint" />
          </mxGeometry>
        </mxCell>
        <mxCell id="pe-_lfKDnjAAdqRKlTJw-26" value="Effacement du champ password" style="endArrow=none;html=1;rounded=0;verticalAlign=bottom;startArrow=classic;startFill=1;endFill=0;dashed=1;entryX=0.091;entryY=1.009;entryDx=0;entryDy=0;entryPerimeter=0;" edge="1" parent="1">
          <mxGeometry width="50" height="50" relative="1" as="geometry">
            <mxPoint x="50.000344827586105" y="590" as="sourcePoint" />
            <mxPoint x="273.60000000000014" y="590" as="targetPoint" />
          </mxGeometry>
        </mxCell>
        <mxCell id="pe-_lfKDnjAAdqRKlTJw-27" value="" style="endArrow=none;dashed=1;html=1;rounded=0;exitX=0.002;exitY=0.463;exitDx=0;exitDy=0;exitPerimeter=0;entryX=1.001;entryY=0.467;entryDx=0;entryDy=0;entryPerimeter=0;" edge="1" parent="1" source="pe-_lfKDnjAAdqRKlTJw-15" target="pe-_lfKDnjAAdqRKlTJw-15">
          <mxGeometry width="50" height="50" relative="1" as="geometry">
            <mxPoint x="550" y="420" as="sourcePoint" />
            <mxPoint x="650" y="420" as="targetPoint" />
          </mxGeometry>
        </mxCell>
        <mxCell id="pe-_lfKDnjAAdqRKlTJw-29" value="[Login valide]" style="text;html=1;align=center;verticalAlign=middle;resizable=0;points=[];autosize=1;strokeColor=none;fillColor=none;" vertex="1" parent="1">
          <mxGeometry x="100" y="290" width="90" height="20" as="geometry" />
        </mxCell>
        <mxCell id="pe-_lfKDnjAAdqRKlTJw-30" value="[Login non valide]" style="text;html=1;align=center;verticalAlign=middle;resizable=0;points=[];autosize=1;strokeColor=none;fillColor=none;" vertex="1" parent="1">
          <mxGeometry x="100" y="450" width="110" height="20" as="geometry" />
        </mxCell>
      </root>
    </mxGraphModel>
  </diagram>
</mxfile>
